<svg xmlns="http://www.w3.org/2000/svg" width="64" height="64" viewBox="0 0 64 64">
  <path class="brackets" fill="#78B" d="
    M50 55l3 3 10-10-10-10-3 3 7 7z
    M46 41l-3-3-10 10 10 10 3-3-7-7z
  " />
  <path class="quill" fill="#7B8" d="
    M50 16l5.7-4C59.4 5.4 64 0 64 0l-5.8 4-12.6 11-10.2 9.6L24.2 40 38 36c2.2-1.2 5-4.3 7.7-8H40l8.4-4 5-8H50z
    M60 0S36 10.3 24 19.2L20 26v-4c-1.8 1.4-3 2.8-4 4v13.8l.2-.2C26.6 26.6 49.6 6.8 60 0z
    M64 0c-9.7 4.5-46.8 37-51 48 0 0 7 4.5 6.5 0S50.2 9.5 64 0z
  "/>
  <path class="ink" fill="#2f4f4f" d="
    M33.5 55.6l-7-5.2c-.3-.2-.5-.7-.5-1V47H8v2.3c0 .4-.2 1-.5 1l-7 5.3c-.3.2-.5.7-.5 1V64h34v-7.3c0-.4-.2-1-.5-1z
  "/>
  <path class="jar-lip" fill="none" stroke="#000" stroke-opacity=".5" stroke-linecap="round" d="M6 47h22" stroke-width="2" />
</svg>
